<svg width="48" height="48" viewBox="0 0 48 48" fill="none" xmlns="http://www.w3.org/2000/svg">
<rect width="48" height="48" rx="8" fill="#1B41B2"/>
<mask id="path-3-outside-1_389_38" maskUnits="userSpaceOnUse" x="9" y="12.8936" width="22" height="32" fill="black">
<rect fill="white" x="9" y="12.8936" width="22" height="32"/>
<path d="M21.7213 18.3389C22.0224 18.3202 22.2925 18.58 22.3913 18.8109C22.637 19.3836 22.5016 19.9536 22.3575 20.5116C21.8276 22.5593 21.0324 24.5136 20.1627 26.4399C19.934 26.9465 19.7167 27.4577 19.5022 27.9697C19.4528 28.0878 19.4352 28.2199 19.4027 28.3454C19.4406 28.3628 19.4792 28.3801 19.5171 28.3968C19.9096 27.6706 20.3319 26.9578 20.6872 26.2143C21.123 25.3019 21.5007 24.3628 21.9088 23.4377C21.9846 23.2655 22.0712 23.0946 22.1774 22.9398C22.4333 22.5687 22.9381 22.5647 23.1845 22.9398C23.4356 23.3209 23.6081 23.7314 23.4349 24.1972C23.2501 24.6918 23.085 25.1971 22.8549 25.6716C22.664 26.0661 22.2641 26.2536 21.8472 26.3297C21.6563 26.3651 21.4405 26.2663 21.1846 26.2189C21.2164 26.1842 21.1887 26.2043 21.1745 26.2316C20.5945 27.2969 20.0213 28.3655 19.4359 29.4274C18.9486 30.3111 18.8843 31.2702 19.0386 32.218C19.2755 33.6723 19.6125 35.1113 19.915 36.555C20.0788 37.3353 20.5458 37.8886 21.257 38.2543C23.1919 39.2482 25.1261 40.2447 27.0596 41.2405C28.1188 41.7865 29.1901 42.3198 29.988 43.2328C30.1586 43.4277 30.2472 43.692 30.3738 43.9243C30.3365 43.9497 30.3 43.975 30.2628 44.0004C30.1301 43.8863 29.9826 43.7841 29.8662 43.6553C28.962 42.6555 27.8129 42.0134 26.615 41.4254C24.7424 40.5063 22.8562 39.6073 21.0324 38.6001C20.0673 38.0675 19.2267 37.3172 18.3185 36.6805C17.9111 36.3948 17.6059 36.0384 17.3947 35.5979C17.3372 35.4784 17.2763 35.3543 17.2526 35.2261C17.0746 34.267 16.6226 33.422 16.0757 32.6344C14.3033 30.0828 12.8733 27.3629 11.9055 24.4195C11.3336 22.6801 10.8091 20.9254 10.286 19.1714C10.1479 18.7088 10.0701 18.2256 10.0058 17.7464C9.96926 17.4767 10.1066 17.2551 10.3801 17.135C10.6508 17.0162 10.8842 17.0829 11.1055 17.2465C11.1597 17.2865 11.2172 17.3245 11.2626 17.3726C11.6003 17.7304 11.9955 17.9706 12.4598 18.1729C13.1291 18.4645 13.4627 19.1373 13.8688 19.7087C13.9764 19.8608 14.0644 20.0264 14.2383 20.1732C14.2715 19.5445 14.3121 18.9164 14.3358 18.287C14.3838 17.0429 14.4231 15.7981 14.4643 14.5533C14.4738 14.2763 14.5719 14.05 14.844 13.9406C15.1222 13.8291 15.3671 13.9232 15.535 14.1442C15.7143 14.3798 15.8713 14.6361 16.004 14.9004C16.0974 15.0866 16.184 15.2214 16.4067 15.3002C16.6029 15.3689 16.7985 15.5244 16.9224 15.6933C17.5937 16.605 17.7778 17.6716 17.7751 18.7582C17.7724 19.8675 17.6682 20.9768 17.6188 22.0868C17.6018 22.4746 17.616 22.8644 17.616 23.2528L17.7189 23.2702C17.7785 23.1707 17.8529 23.0766 17.8949 22.9698C18.5845 21.2011 19.266 19.4297 19.9597 17.6629C20.051 17.43 20.1647 17.1864 20.3326 17.0062C20.6493 16.6658 21.1346 16.7819 21.3735 17.1797C21.7152 17.8058 21.8026 18.1937 21.6476 18.9071C21.546 19.3743 21.3247 19.9383 21.1643 20.3875C20.9694 20.9328 20.5762 21.2979 20.0186 21.4847C19.6782 21.5989 19.3553 21.6096 19.0799 21.2918C19.0244 21.3753 18.977 21.4333 18.9432 21.4988C18.0945 23.1387 17.2465 24.7786 16.3992 26.4192C16.3126 26.5874 16.2307 26.7576 16.142 26.9251C15.8064 27.5585 15.7976 28.1953 15.9938 28.8874C16.5779 30.9471 17.1064 33.0222 17.6797 35.0853C17.7629 35.3843 17.9138 35.7087 18.1344 35.9189C18.6068 36.3701 19.1442 36.7546 19.7025 37.2045C19.5841 36.834 19.4447 36.517 19.3831 36.1866C19.107 34.7149 18.8342 33.2425 18.598 31.7648C18.4688 30.9558 18.7077 30.1842 18.9581 29.4167C19.0636 29.0923 19.0305 28.7259 19.0961 28.3848C19.1746 27.9757 19.2443 27.5552 19.4 27.1721C19.9631 25.7831 20.5986 24.4215 21.1325 23.0219C21.5075 22.0394 21.7734 21.0155 22.0644 20.0037C22.2005 19.5305 22.1734 19.0559 21.8736 18.6294C21.8553 18.6034 21.8167 18.54 21.7829 18.5066C21.7491 18.4732 21.7491 18.4398 21.7152 18.4065L21.7213 18.3389ZM16.6239 32.8487C16.6395 32.8393 16.6544 32.83 16.6699 32.8207C16.3133 31.5545 15.9817 30.281 15.5905 29.0256C15.3076 28.1152 15.3942 27.2882 15.8883 26.4726C16.3613 25.6917 16.7972 24.8894 17.2343 24.0878C17.3196 23.9309 17.3805 23.734 17.3724 23.5592C17.3535 23.1667 17.235 22.7756 17.2431 22.3851C17.2675 21.1857 17.367 19.9877 17.3711 18.7883C17.3744 17.8512 17.1944 16.9314 16.7254 16.0958C16.6198 15.9082 16.4466 15.7574 16.3045 15.5898C16.2659 15.6099 16.2273 15.6299 16.1881 15.6499C16.1955 15.7514 16.203 15.8535 16.2111 15.9549C16.274 16.7712 16.2578 17.5795 15.8883 18.3351C15.6412 18.841 15.2156 19.0065 14.7019 18.8183C14.6911 18.9197 14.6789 19.0152 14.6701 19.112C14.5679 20.1952 14.4833 21.2805 14.3608 22.3618C14.1774 23.973 13.9304 25.5775 13.9859 27.2074C14.0048 27.7728 14.1111 28.3127 14.373 28.812C14.9618 29.9346 15.5621 31.0519 16.1678 32.1659C16.2977 32.4048 16.4703 32.6211 16.6232 32.8474L16.6239 32.8487ZM13.5554 27.6166C13.5554 27.0085 13.504 26.4078 13.5656 25.8178C13.7253 24.2947 13.9365 22.7769 14.1212 21.2558C14.1348 21.143 14.1287 21.0082 14.0779 20.9114C13.9195 20.6091 13.7023 20.3347 13.569 20.0237C13.3159 19.4337 12.8976 18.9751 12.4489 18.5366C12.3386 18.4292 12.1735 18.3758 11.9569 18.2543C12.0246 18.4492 12.0733 18.5473 12.093 18.6514C12.1938 19.1934 12.3325 19.7334 12.3697 20.28C12.4002 20.7252 12.1667 21.119 11.7349 21.2965C11.4148 21.428 11.3776 21.5969 11.4771 21.8772C12.1457 23.7594 12.8103 25.6429 13.4783 27.5258C13.4912 27.5612 13.5304 27.5879 13.5554 27.6166ZM21.3735 18.3324C21.3653 18.2223 21.3538 18.1148 21.3369 18.006C21.2943 17.7277 21.2273 17.4033 20.8875 17.3593C20.5749 17.3185 20.4564 17.6109 20.3671 17.8452C19.9881 18.8396 19.6294 19.8415 19.2545 20.838C19.1523 21.1096 19.3073 21.1851 19.5205 21.2098C19.89 21.2525 20.1688 21.0763 20.407 20.818C21.0581 20.1138 21.2706 19.2374 21.3735 18.3324ZM14.7181 16.7092C14.7256 16.7092 14.7323 16.7098 14.7398 16.7105C14.7398 17.2204 14.735 17.731 14.7418 18.2409C14.7459 18.5366 14.9814 18.6701 15.2392 18.5146C15.359 18.4425 15.4849 18.3317 15.5384 18.2089C16.0683 16.9915 16.0635 15.7807 15.4328 14.5967C15.3732 14.4852 15.2196 14.4218 15.11 14.3364C15.0173 14.4532 14.9164 14.564 14.8359 14.6881C14.8027 14.7389 14.8081 14.8169 14.8048 14.883C14.775 15.4917 14.7466 16.1004 14.7181 16.7092ZM12.1254 20.2206C12.0909 19.443 11.896 18.8083 11.5008 18.2516C11.3045 17.9753 11.0595 17.7243 10.8003 17.5034C10.6115 17.3426 10.4254 17.4347 10.4078 17.685C10.3929 17.8912 10.4078 18.1108 10.4647 18.309C10.7076 19.1627 10.9682 20.011 11.2267 20.86C11.3038 21.113 11.5177 21.169 11.7471 21.0022C12.0476 20.7839 12.1586 20.4849 12.1248 20.2206H12.1254ZM23.0803 23.8916C23.0803 23.8248 23.1012 23.7494 23.0769 23.6933C22.9848 23.4811 22.8786 23.2748 22.7771 23.0659C22.6146 23.2141 22.3852 23.3336 22.3027 23.5164C21.988 24.2133 21.7254 24.9334 21.4323 25.6403C21.3092 25.9366 21.4824 26.008 21.7112 26.0127C22.1192 26.02 22.373 25.7531 22.574 25.454C22.8901 24.9842 23.0816 24.4662 23.0803 23.8916Z"/>
</mask>
<path d="M21.7213 18.3389C22.0224 18.3202 22.2925 18.58 22.3913 18.8109C22.637 19.3836 22.5016 19.9536 22.3575 20.5116C21.8276 22.5593 21.0324 24.5136 20.1627 26.4399C19.934 26.9465 19.7167 27.4577 19.5022 27.9697C19.4528 28.0878 19.4352 28.2199 19.4027 28.3454C19.4406 28.3628 19.4792 28.3801 19.5171 28.3968C19.9096 27.6706 20.3319 26.9578 20.6872 26.2143C21.123 25.3019 21.5007 24.3628 21.9088 23.4377C21.9846 23.2655 22.0712 23.0946 22.1774 22.9398C22.4333 22.5687 22.9381 22.5647 23.1845 22.9398C23.4356 23.3209 23.6081 23.7314 23.4349 24.1972C23.2501 24.6918 23.085 25.1971 22.8549 25.6716C22.664 26.0661 22.2641 26.2536 21.8472 26.3297C21.6563 26.3651 21.4405 26.2663 21.1846 26.2189C21.2164 26.1842 21.1887 26.2043 21.1745 26.2316C20.5945 27.2969 20.0213 28.3655 19.4359 29.4274C18.9486 30.3111 18.8843 31.2702 19.0386 32.218C19.2755 33.6723 19.6125 35.1113 19.915 36.555C20.0788 37.3353 20.5458 37.8886 21.257 38.2543C23.1919 39.2482 25.1261 40.2447 27.0596 41.2405C28.1188 41.7865 29.1901 42.3198 29.988 43.2328C30.1586 43.4277 30.2472 43.692 30.3738 43.9243C30.3365 43.9497 30.3 43.975 30.2628 44.0004C30.1301 43.8863 29.9826 43.7841 29.8662 43.6553C28.962 42.6555 27.8129 42.0134 26.615 41.4254C24.7424 40.5063 22.8562 39.6073 21.0324 38.6001C20.0673 38.0675 19.2267 37.3172 18.3185 36.6805C17.9111 36.3948 17.6059 36.0384 17.3947 35.5979C17.3372 35.4784 17.2763 35.3543 17.2526 35.2261C17.0746 34.267 16.6226 33.422 16.0757 32.6344C14.3033 30.0828 12.8733 27.3629 11.9055 24.4195C11.3336 22.6801 10.8091 20.9254 10.286 19.1714C10.1479 18.7088 10.0701 18.2256 10.0058 17.7464C9.96926 17.4767 10.1066 17.2551 10.3801 17.135C10.6508 17.0162 10.8842 17.0829 11.1055 17.2465C11.1597 17.2865 11.2172 17.3245 11.2626 17.3726C11.6003 17.7304 11.9955 17.9706 12.4598 18.1729C13.1291 18.4645 13.4627 19.1373 13.8688 19.7087C13.9764 19.8608 14.0644 20.0264 14.2383 20.1732C14.2715 19.5445 14.3121 18.9164 14.3358 18.287C14.3838 17.0429 14.4231 15.7981 14.4643 14.5533C14.4738 14.2763 14.5719 14.05 14.844 13.9406C15.1222 13.8291 15.3671 13.9232 15.535 14.1442C15.7143 14.3798 15.8713 14.6361 16.004 14.9004C16.0974 15.0866 16.184 15.2214 16.4067 15.3002C16.6029 15.3689 16.7985 15.5244 16.9224 15.6933C17.5937 16.605 17.7778 17.6716 17.7751 18.7582C17.7724 19.8675 17.6682 20.9768 17.6188 22.0868C17.6018 22.4746 17.616 22.8644 17.616 23.2528L17.7189 23.2702C17.7785 23.1707 17.8529 23.0766 17.8949 22.9698C18.5845 21.2011 19.266 19.4297 19.9597 17.6629C20.051 17.43 20.1647 17.1864 20.3326 17.0062C20.6493 16.6658 21.1346 16.7819 21.3735 17.1797C21.7152 17.8058 21.8026 18.1937 21.6476 18.9071C21.546 19.3743 21.3247 19.9383 21.1643 20.3875C20.9694 20.9328 20.5762 21.2979 20.0186 21.4847C19.6782 21.5989 19.3553 21.6096 19.0799 21.2918C19.0244 21.3753 18.977 21.4333 18.9432 21.4988C18.0945 23.1387 17.2465 24.7786 16.3992 26.4192C16.3126 26.5874 16.2307 26.7576 16.142 26.9251C15.8064 27.5585 15.7976 28.1953 15.9938 28.8874C16.5779 30.9471 17.1064 33.0222 17.6797 35.0853C17.7629 35.3843 17.9138 35.7087 18.1344 35.9189C18.6068 36.3701 19.1442 36.7546 19.7025 37.2045C19.5841 36.834 19.4447 36.517 19.3831 36.1866C19.107 34.7149 18.8342 33.2425 18.598 31.7648C18.4688 30.9558 18.7077 30.1842 18.9581 29.4167C19.0636 29.0923 19.0305 28.7259 19.0961 28.3848C19.1746 27.9757 19.2443 27.5552 19.4 27.1721C19.9631 25.7831 20.5986 24.4215 21.1325 23.0219C21.5075 22.0394 21.7734 21.0155 22.0644 20.0037C22.2005 19.5305 22.1734 19.0559 21.8736 18.6294C21.8553 18.6034 21.8167 18.54 21.7829 18.5066C21.7491 18.4732 21.7491 18.4398 21.7152 18.4065L21.7213 18.3389ZM16.6239 32.8487C16.6395 32.8393 16.6544 32.83 16.6699 32.8207C16.3133 31.5545 15.9817 30.281 15.5905 29.0256C15.3076 28.1152 15.3942 27.2882 15.8883 26.4726C16.3613 25.6917 16.7972 24.8894 17.2343 24.0878C17.3196 23.9309 17.3805 23.734 17.3724 23.5592C17.3535 23.1667 17.235 22.7756 17.2431 22.3851C17.2675 21.1857 17.367 19.9877 17.3711 18.7883C17.3744 17.8512 17.1944 16.9314 16.7254 16.0958C16.6198 15.9082 16.4466 15.7574 16.3045 15.5898C16.2659 15.6099 16.2273 15.6299 16.1881 15.6499C16.1955 15.7514 16.203 15.8535 16.2111 15.9549C16.274 16.7712 16.2578 17.5795 15.8883 18.3351C15.6412 18.841 15.2156 19.0065 14.7019 18.8183C14.6911 18.9197 14.6789 19.0152 14.6701 19.112C14.5679 20.1952 14.4833 21.2805 14.3608 22.3618C14.1774 23.973 13.9304 25.5775 13.9859 27.2074C14.0048 27.7728 14.1111 28.3127 14.373 28.812C14.9618 29.9346 15.5621 31.0519 16.1678 32.1659C16.2977 32.4048 16.4703 32.6211 16.6232 32.8474L16.6239 32.8487ZM13.5554 27.6166C13.5554 27.0085 13.504 26.4078 13.5656 25.8178C13.7253 24.2947 13.9365 22.7769 14.1212 21.2558C14.1348 21.143 14.1287 21.0082 14.0779 20.9114C13.9195 20.6091 13.7023 20.3347 13.569 20.0237C13.3159 19.4337 12.8976 18.9751 12.4489 18.5366C12.3386 18.4292 12.1735 18.3758 11.9569 18.2543C12.0246 18.4492 12.0733 18.5473 12.093 18.6514C12.1938 19.1934 12.3325 19.7334 12.3697 20.28C12.4002 20.7252 12.1667 21.119 11.7349 21.2965C11.4148 21.428 11.3776 21.5969 11.4771 21.8772C12.1457 23.7594 12.8103 25.6429 13.4783 27.5258C13.4912 27.5612 13.5304 27.5879 13.5554 27.6166ZM21.3735 18.3324C21.3653 18.2223 21.3538 18.1148 21.3369 18.006C21.2943 17.7277 21.2273 17.4033 20.8875 17.3593C20.5749 17.3185 20.4564 17.6109 20.3671 17.8452C19.9881 18.8396 19.6294 19.8415 19.2545 20.838C19.1523 21.1096 19.3073 21.1851 19.5205 21.2098C19.89 21.2525 20.1688 21.0763 20.407 20.818C21.0581 20.1138 21.2706 19.2374 21.3735 18.3324ZM14.7181 16.7092C14.7256 16.7092 14.7323 16.7098 14.7398 16.7105C14.7398 17.2204 14.735 17.731 14.7418 18.2409C14.7459 18.5366 14.9814 18.6701 15.2392 18.5146C15.359 18.4425 15.4849 18.3317 15.5384 18.2089C16.0683 16.9915 16.0635 15.7807 15.4328 14.5967C15.3732 14.4852 15.2196 14.4218 15.11 14.3364C15.0173 14.4532 14.9164 14.564 14.8359 14.6881C14.8027 14.7389 14.8081 14.8169 14.8048 14.883C14.775 15.4917 14.7466 16.1004 14.7181 16.7092ZM12.1254 20.2206C12.0909 19.443 11.896 18.8083 11.5008 18.2516C11.3045 17.9753 11.0595 17.7243 10.8003 17.5034C10.6115 17.3426 10.4254 17.4347 10.4078 17.685C10.3929 17.8912 10.4078 18.1108 10.4647 18.309C10.7076 19.1627 10.9682 20.011 11.2267 20.86C11.3038 21.113 11.5177 21.169 11.7471 21.0022C12.0476 20.7839 12.1586 20.4849 12.1248 20.2206H12.1254ZM23.0803 23.8916C23.0803 23.8248 23.1012 23.7494 23.0769 23.6933C22.9848 23.4811 22.8786 23.2748 22.7771 23.0659C22.6146 23.2141 22.3852 23.3336 22.3027 23.5164C21.988 24.2133 21.7254 24.9334 21.4323 25.6403C21.3092 25.9366 21.4824 26.008 21.7112 26.0127C22.1192 26.02 22.373 25.7531 22.574 25.454C22.8901 24.9842 23.0816 24.4662 23.0803 23.8916Z" fill="white"/>
<path d="M21.7213 18.3389C22.0224 18.3202 22.2925 18.58 22.3913 18.8109C22.637 19.3836 22.5016 19.9536 22.3575 20.5116C21.8276 22.5593 21.0324 24.5136 20.1627 26.4399C19.934 26.9465 19.7167 27.4577 19.5022 27.9697C19.4528 28.0878 19.4352 28.2199 19.4027 28.3454C19.4406 28.3628 19.4792 28.3801 19.5171 28.3968C19.9096 27.6706 20.3319 26.9578 20.6872 26.2143C21.123 25.3019 21.5007 24.3628 21.9088 23.4377C21.9846 23.2655 22.0712 23.0946 22.1774 22.9398C22.4333 22.5687 22.9381 22.5647 23.1845 22.9398C23.4356 23.3209 23.6081 23.7314 23.4349 24.1972C23.2501 24.6918 23.085 25.1971 22.8549 25.6716C22.664 26.0661 22.2641 26.2536 21.8472 26.3297C21.6563 26.3651 21.4405 26.2663 21.1846 26.2189C21.2164 26.1842 21.1887 26.2043 21.1745 26.2316C20.5945 27.2969 20.0213 28.3655 19.4359 29.4274C18.9486 30.3111 18.8843 31.2702 19.0386 32.218C19.2755 33.6723 19.6125 35.1113 19.915 36.555C20.0788 37.3353 20.5458 37.8886 21.257 38.2543C23.1919 39.2482 25.1261 40.2447 27.0596 41.2405C28.1188 41.7865 29.1901 42.3198 29.988 43.2328C30.1586 43.4277 30.2472 43.692 30.3738 43.9243C30.3365 43.9497 30.3 43.975 30.2628 44.0004C30.1301 43.8863 29.9826 43.7841 29.8662 43.6553C28.962 42.6555 27.8129 42.0134 26.615 41.4254C24.7424 40.5063 22.8562 39.6073 21.0324 38.6001C20.0673 38.0675 19.2267 37.3172 18.3185 36.6805C17.9111 36.3948 17.6059 36.0384 17.3947 35.5979C17.3372 35.4784 17.2763 35.3543 17.2526 35.2261C17.0746 34.267 16.6226 33.422 16.0757 32.6344C14.3033 30.0828 12.8733 27.3629 11.9055 24.4195C11.3336 22.6801 10.8091 20.9254 10.286 19.1714C10.1479 18.7088 10.0701 18.2256 10.0058 17.7464C9.96926 17.4767 10.1066 17.2551 10.3801 17.135C10.6508 17.0162 10.8842 17.0829 11.1055 17.2465C11.1597 17.2865 11.2172 17.3245 11.2626 17.3726C11.6003 17.7304 11.9955 17.9706 12.4598 18.1729C13.1291 18.4645 13.4627 19.1373 13.8688 19.7087C13.9764 19.8608 14.0644 20.0264 14.2383 20.1732C14.2715 19.5445 14.3121 18.9164 14.3358 18.287C14.3838 17.0429 14.4231 15.7981 14.4643 14.5533C14.4738 14.2763 14.5719 14.05 14.844 13.9406C15.1222 13.8291 15.3671 13.9232 15.535 14.1442C15.7143 14.3798 15.8713 14.6361 16.004 14.9004C16.0974 15.0866 16.184 15.2214 16.4067 15.3002C16.6029 15.3689 16.7985 15.5244 16.9224 15.6933C17.5937 16.605 17.7778 17.6716 17.7751 18.7582C17.7724 19.8675 17.6682 20.9768 17.6188 22.0868C17.6018 22.4746 17.616 22.8644 17.616 23.2528L17.7189 23.2702C17.7785 23.1707 17.8529 23.0766 17.8949 22.9698C18.5845 21.2011 19.266 19.4297 19.9597 17.6629C20.051 17.43 20.1647 17.1864 20.3326 17.0062C20.6493 16.6658 21.1346 16.7819 21.3735 17.1797C21.7152 17.8058 21.8026 18.1937 21.6476 18.9071C21.546 19.3743 21.3247 19.9383 21.1643 20.3875C20.9694 20.9328 20.5762 21.2979 20.0186 21.4847C19.6782 21.5989 19.3553 21.6096 19.0799 21.2918C19.0244 21.3753 18.977 21.4333 18.9432 21.4988C18.0945 23.1387 17.2465 24.7786 16.3992 26.4192C16.3126 26.5874 16.2307 26.7576 16.142 26.9251C15.8064 27.5585 15.7976 28.1953 15.9938 28.8874C16.5779 30.9471 17.1064 33.0222 17.6797 35.0853C17.7629 35.3843 17.9138 35.7087 18.1344 35.9189C18.6068 36.3701 19.1442 36.7546 19.7025 37.2045C19.5841 36.834 19.4447 36.517 19.3831 36.1866C19.107 34.7149 18.8342 33.2425 18.598 31.7648C18.4688 30.9558 18.7077 30.1842 18.9581 29.4167C19.0636 29.0923 19.0305 28.7259 19.0961 28.3848C19.1746 27.9757 19.2443 27.5552 19.4 27.1721C19.9631 25.7831 20.5986 24.4215 21.1325 23.0219C21.5075 22.0394 21.7734 21.0155 22.0644 20.0037C22.2005 19.5305 22.1734 19.0559 21.8736 18.6294C21.8553 18.6034 21.8167 18.54 21.7829 18.5066C21.7491 18.4732 21.7491 18.4398 21.7152 18.4065L21.7213 18.3389ZM16.6239 32.8487C16.6395 32.8393 16.6544 32.83 16.6699 32.8207C16.3133 31.5545 15.9817 30.281 15.5905 29.0256C15.3076 28.1152 15.3942 27.2882 15.8883 26.4726C16.3613 25.6917 16.7972 24.8894 17.2343 24.0878C17.3196 23.9309 17.3805 23.734 17.3724 23.5592C17.3535 23.1667 17.235 22.7756 17.2431 22.3851C17.2675 21.1857 17.367 19.9877 17.3711 18.7883C17.3744 17.8512 17.1944 16.9314 16.7254 16.0958C16.6198 15.9082 16.4466 15.7574 16.3045 15.5898C16.2659 15.6099 16.2273 15.6299 16.1881 15.6499C16.1955 15.7514 16.203 15.8535 16.2111 15.9549C16.274 16.7712 16.2578 17.5795 15.8883 18.3351C15.6412 18.841 15.2156 19.0065 14.7019 18.8183C14.6911 18.9197 14.6789 19.0152 14.6701 19.112C14.5679 20.1952 14.4833 21.2805 14.3608 22.3618C14.1774 23.973 13.9304 25.5775 13.9859 27.2074C14.0048 27.7728 14.1111 28.3127 14.373 28.812C14.9618 29.9346 15.5621 31.0519 16.1678 32.1659C16.2977 32.4048 16.4703 32.6211 16.6232 32.8474L16.6239 32.8487ZM13.5554 27.6166C13.5554 27.0085 13.504 26.4078 13.5656 25.8178C13.7253 24.2947 13.9365 22.7769 14.1212 21.2558C14.1348 21.143 14.1287 21.0082 14.0779 20.9114C13.9195 20.6091 13.7023 20.3347 13.569 20.0237C13.3159 19.4337 12.8976 18.9751 12.4489 18.5366C12.3386 18.4292 12.1735 18.3758 11.9569 18.2543C12.0246 18.4492 12.0733 18.5473 12.093 18.6514C12.1938 19.1934 12.3325 19.7334 12.3697 20.28C12.4002 20.7252 12.1667 21.119 11.7349 21.2965C11.4148 21.428 11.3776 21.5969 11.4771 21.8772C12.1457 23.7594 12.8103 25.6429 13.4783 27.5258C13.4912 27.5612 13.5304 27.5879 13.5554 27.6166ZM21.3735 18.3324C21.3653 18.2223 21.3538 18.1148 21.3369 18.006C21.2943 17.7277 21.2273 17.4033 20.8875 17.3593C20.5749 17.3185 20.4564 17.6109 20.3671 17.8452C19.9881 18.8396 19.6294 19.8415 19.2545 20.838C19.1523 21.1096 19.3073 21.1851 19.5205 21.2098C19.89 21.2525 20.1688 21.0763 20.407 20.818C21.0581 20.1138 21.2706 19.2374 21.3735 18.3324ZM14.7181 16.7092C14.7256 16.7092 14.7323 16.7098 14.7398 16.7105C14.7398 17.2204 14.735 17.731 14.7418 18.2409C14.7459 18.5366 14.9814 18.6701 15.2392 18.5146C15.359 18.4425 15.4849 18.3317 15.5384 18.2089C16.0683 16.9915 16.0635 15.7807 15.4328 14.5967C15.3732 14.4852 15.2196 14.4218 15.11 14.3364C15.0173 14.4532 14.9164 14.564 14.8359 14.6881C14.8027 14.7389 14.8081 14.8169 14.8048 14.883C14.775 15.4917 14.7466 16.1004 14.7181 16.7092ZM12.1254 20.2206C12.0909 19.443 11.896 18.8083 11.5008 18.2516C11.3045 17.9753 11.0595 17.7243 10.8003 17.5034C10.6115 17.3426 10.4254 17.4347 10.4078 17.685C10.3929 17.8912 10.4078 18.1108 10.4647 18.309C10.7076 19.1627 10.9682 20.011 11.2267 20.86C11.3038 21.113 11.5177 21.169 11.7471 21.0022C12.0476 20.7839 12.1586 20.4849 12.1248 20.2206H12.1254ZM23.0803 23.8916C23.0803 23.8248 23.1012 23.7494 23.0769 23.6933C22.9848 23.4811 22.8786 23.2748 22.7771 23.0659C22.6146 23.2141 22.3852 23.3336 22.3027 23.5164C21.988 24.2133 21.7254 24.9334 21.4323 25.6403C21.3092 25.9366 21.4824 26.008 21.7112 26.0127C22.1192 26.02 22.373 25.7531 22.574 25.454C22.8901 24.9842 23.0816 24.4662 23.0803 23.8916Z" stroke="white" stroke-width="0.4" mask="url(#path-3-outside-1_389_38)"/>
<path d="M30.4958 3.90039C30.6901 3.90043 30.8506 3.95962 30.9666 4.07617C31.0812 4.19154 31.1417 4.35271 31.158 4.53613C31.2269 5.32052 31.2969 6.10656 31.3572 6.89258C31.5115 8.89772 31.661 10.9036 31.8113 12.9092C31.8195 13.0206 31.824 13.1253 31.8289 13.2285L31.8503 13.5381L31.8562 13.6289C31.8569 13.7191 31.8418 13.8062 31.8005 13.8838C31.7439 13.9902 31.6451 14.0635 31.5085 14.1084C31.4482 14.1283 31.4192 14.1534 31.4041 14.1738C31.3889 14.1943 31.3804 14.2204 31.3787 14.2568C31.3769 14.2948 31.3824 14.3381 31.3914 14.3887C31.3996 14.4352 31.412 14.4943 31.4167 14.5459C31.4169 14.5466 31.4178 14.5491 31.4197 14.5537C31.422 14.5595 31.4256 14.5673 31.4314 14.5762C31.4433 14.5943 31.4614 14.6149 31.4832 14.6348C31.5294 14.677 31.5787 14.7036 31.6072 14.709H31.6082C31.7726 14.7402 31.9412 14.7546 32.116 14.7695C32.2891 14.7843 32.4687 14.7998 32.6453 14.834C33.0032 14.903 33.2768 15.0256 33.4509 15.2383C33.6262 15.4524 33.6854 15.7394 33.658 16.1016C33.5712 17.243 33.4592 18.3844 33.3025 19.5195C33.2076 20.2072 33.1012 20.8933 32.989 21.5781L32.6404 23.6299C32.5841 23.9551 32.4883 24.1994 32.3083 24.3682C32.1283 24.5369 31.8787 24.6162 31.5486 24.6484C31.1518 24.6873 30.7541 24.6924 30.3601 24.6943C29.9649 24.6963 29.5742 24.6946 29.1843 24.7178H29.1785C28.3872 24.7178 27.5743 24.7641 26.7751 24.7051C26.3702 24.675 26.0308 24.5621 25.7781 24.335C25.5246 24.1071 25.3701 23.7752 25.3132 23.3311C25.0352 21.1639 24.7087 19.0036 24.406 16.8369C24.3805 16.6537 24.3887 16.4621 24.3875 16.292C24.3847 15.8834 24.4491 15.5714 24.6365 15.3428C24.8238 15.1142 25.1182 14.9881 25.5261 14.9102C25.8622 14.8456 26.2058 14.8138 26.5417 14.7871C26.6253 14.7804 26.6538 14.7591 26.6658 14.7441C26.68 14.7262 26.6924 14.69 26.6902 14.6104C26.6881 14.5355 26.6935 14.4536 26.6951 14.3877C26.6967 14.3173 26.6943 14.2577 26.6824 14.2061C26.6709 14.1565 26.6509 14.116 26.616 14.083C26.5981 14.0662 26.5747 14.0495 26.5437 14.0342L26.4246 13.9932C26.3663 13.9796 26.3301 13.9325 26.3113 13.9033C26.2889 13.8687 26.2707 13.8268 26.2566 13.7852C26.2288 13.7033 26.2099 13.602 26.2156 13.5225C26.2826 12.5464 26.367 11.5712 26.4509 10.5977C26.5741 9.16993 26.7007 7.74221 26.8259 6.31543C26.8731 5.7755 26.9111 5.22851 26.9714 4.68652C26.9978 4.45349 27.0575 4.26422 27.1892 4.13281C27.3223 4.00004 27.5112 3.94347 27.7537 3.93359H27.7546C28.6685 3.89747 29.5835 3.89906 30.4958 3.90039ZM29.6072 15.2646C28.7047 15.3021 27.8055 15.3252 26.908 15.3818C26.3874 15.4149 25.8661 15.4839 25.3494 15.5703C25.2078 15.5939 25.1119 15.6583 25.0476 15.7471C24.9816 15.8384 24.9443 15.9624 24.9333 16.1084C24.9219 16.2621 24.9155 16.4109 24.9373 16.5508V16.5518C25.2716 18.7461 25.5982 20.9409 25.9587 23.1299C26.0201 23.5015 26.1105 23.7139 26.2595 23.8408C26.4091 23.9683 26.6379 24.0269 27.0222 24.0371C28.2913 24.0704 29.5633 24.0693 30.8337 24.0439C31.291 24.035 31.5599 23.9711 31.7371 23.8223C31.9138 23.6738 32.0204 23.4227 32.1003 22.9766C32.3932 21.3398 32.6574 19.6976 32.905 18.0537C33.0017 17.4124 33.0299 16.7598 33.072 16.1035C33.086 15.8884 33.0593 15.7503 32.9958 15.6514C32.9326 15.5531 32.8218 15.4766 32.6316 15.4092V15.4082C32.5171 15.3678 32.3993 15.3357 32.2849 15.3213L32.1716 15.3135C31.3098 15.3034 30.4637 15.2647 29.6072 15.2646ZM29.073 14.209L28.9314 14.3496V14.2129C28.7187 14.2146 28.5053 14.2195 28.2908 14.2256C28.0435 14.2326 27.7944 14.2387 27.5447 14.2354C27.446 14.234 27.4139 14.2614 27.3992 14.2822C27.3886 14.2972 27.3805 14.318 27.3748 14.3467L27.365 14.458C27.3643 14.5071 27.3629 14.5481 27.365 14.5869C27.367 14.6251 27.3718 14.6516 27.3796 14.6699C27.3864 14.6855 27.3954 14.6955 27.4099 14.7031C27.4269 14.712 27.4588 14.7211 27.5173 14.7197L30.5173 14.6455C30.6241 14.6428 30.6755 14.62 30.7009 14.5928C30.7256 14.5664 30.7469 14.5131 30.738 14.3975C30.7288 14.2811 30.6944 14.2491 30.6667 14.2344C30.625 14.212 30.5601 14.2066 30.45 14.208C29.9905 14.2151 29.5301 14.2093 29.073 14.209ZM29.9724 4.57129C29.2295 4.55726 28.4975 4.60299 27.7449 4.6084L27.7458 4.60938C27.6337 4.61026 27.5829 4.63635 27.5564 4.66504C27.5273 4.69679 27.5058 4.75359 27.4998 4.8584C27.4787 5.22586 27.4451 5.59351 27.4148 5.95801C27.2178 8.3162 27.0181 10.6743 26.8259 13.0322C26.8152 13.1634 26.8102 13.2566 26.8162 13.3252C26.8221 13.3931 26.8376 13.4219 26.8523 13.4375C26.8677 13.4537 26.898 13.4718 26.9695 13.4844C27.041 13.4969 27.1388 13.502 27.2751 13.5049C27.803 13.5162 28.33 13.5068 28.8621 13.5068L29.3904 13.4971C29.5669 13.4907 29.744 13.4821 29.9216 13.4736C30.276 13.4568 30.6335 13.4398 30.991 13.4404C31.1247 13.4407 31.1896 13.4125 31.2214 13.3779C31.2523 13.3444 31.2758 13.2785 31.2585 13.1406C31.2088 12.7413 31.1935 12.3329 31.1628 11.9395C30.9849 9.69159 30.8081 7.4433 30.6267 5.19629C30.6043 4.91621 30.5611 4.77555 30.4802 4.69629C30.4004 4.61815 30.2604 4.57664 29.9724 4.57129Z" fill="white" stroke="white" stroke-width="0.2"/>
<path d="M23.4512 23.2891C23.5148 23.3204 23.6022 23.3611 23.6758 23.4023C23.7132 23.4233 23.7512 23.4457 23.7832 23.4707C23.8139 23.4947 23.8474 23.5261 23.8682 23.5654C24.3194 24.4213 24.5018 25.6234 24.1943 26.7461C24.161 26.8679 24.1375 26.9534 24.127 27.0205C24.1165 27.0865 24.1208 27.1214 24.1309 27.1455C24.1409 27.1695 24.1633 27.1976 24.2197 27.2373C24.2771 27.2777 24.3598 27.3228 24.4785 27.3848C25.5325 27.9359 26.5816 28.4921 27.6611 28.9785C28.2145 29.228 28.7844 29.4431 29.3564 29.6631C29.9275 29.8827 30.5005 30.1071 31.0537 30.373C34.1098 31.8424 36.2484 34.1648 37.3701 37.3457C37.8837 38.8017 38.3219 40.2868 38.7939 41.752C38.8755 42.0038 38.9606 42.255 39.0508 42.5039L39.0752 42.5771C39.0819 42.6014 39.0867 42.6256 39.0889 42.6494C39.0936 42.702 39.084 42.7506 39.0586 42.7988C39.0354 42.8427 38.9997 42.8848 38.958 42.9287C38.9158 42.9732 38.8602 43.0271 38.792 43.0938L38.6768 43.2061L38.627 43.0537C38.4127 42.4046 38.1964 41.7676 37.9951 41.126C37.4818 39.4908 37.0407 37.8507 36.3096 36.3018C35.0865 33.7115 33.0538 31.9633 30.4658 30.7783C29.7472 30.4492 29 30.1808 28.2529 29.8984V29.8975C26.7805 29.3403 25.3863 28.6352 24.0732 27.7734C24.0105 27.7322 23.9466 27.6978 23.8398 27.6367C23.4915 28.5435 23.1509 29.4226 22.8252 30.3066C22.8276 30.3002 22.8252 30.3026 22.8281 30.3203C22.8307 30.3358 22.8368 30.3555 22.8457 30.376C22.8546 30.3963 22.8655 30.4148 22.876 30.4287C22.8873 30.4436 22.8936 30.4478 22.8926 30.4473C23.2239 30.6195 23.5597 30.7843 23.8965 30.9502C24.233 31.1159 24.5713 31.283 24.9043 31.459C25.7168 31.8881 26.6045 31.9119 27.5215 31.9854C27.7931 32.0072 28.0661 32.0522 28.3438 32.1543L28.3223 32.3477C28.2554 32.3562 28.162 32.3748 28.0771 32.377C27.9455 32.3803 27.8104 32.3769 27.6836 32.376C27.5549 32.3751 27.4307 32.3768 27.3096 32.3916C26.1044 32.5394 25.0407 32.1586 24.0264 31.6104C23.5872 31.3731 23.135 31.165 22.6807 30.9424C22.7315 31.2456 22.7734 31.5413 22.8408 31.834C22.971 32.3972 23.0971 32.9582 23.2695 33.5029C23.3266 33.682 23.4723 33.8711 23.6318 33.9893C23.8585 34.1567 24.0957 34.312 24.3359 34.4678C24.5753 34.623 24.8184 34.7795 25.0527 34.9473H25.0518C25.1377 35.0087 25.2024 35.0919 25.2568 35.1709C25.3154 35.2559 25.3569 35.3263 25.4111 35.3975L25.4639 35.4658L25.4033 35.5283C25.3875 35.5445 25.3715 35.5613 25.3555 35.5781C25.3396 35.5948 25.3232 35.6119 25.3066 35.6289L25.2549 35.6816L25.1895 35.6484C25.0781 35.5917 24.9414 35.5323 24.8223 35.459C24.1835 35.0659 23.5442 34.6718 22.9121 34.2676C22.8085 34.2014 22.7161 34.0741 22.6875 33.9531C22.4803 33.067 22.287 32.1759 22.0869 31.29C21.955 30.7081 22.136 30.1759 22.3301 29.6777C22.7064 28.7107 23.1126 27.768 23.4678 26.7998L23.5674 26.5068C23.7827 25.8204 23.867 25.1181 23.7158 24.4023C23.6851 24.2563 23.6227 24.1265 23.5205 23.9248L23.5186 23.9189C23.4716 23.811 23.4149 23.7453 23.3604 23.6572C23.3085 23.5736 23.2625 23.4702 23.3145 23.3418L23.3545 23.2412L23.4512 23.2891Z" fill="white" stroke="white" stroke-width="0.2"/>
<path d="M26.0947 35.459L26.1084 35.4629C26.338 35.5335 26.5183 35.601 26.7412 35.665C28.2795 36.1076 29.8288 36.5304 31.3613 37.002C32.0718 37.2207 32.7619 37.5115 33.4346 37.8164C33.592 37.8875 33.7315 37.9899 33.8613 38.0957C33.9956 38.2052 34.1118 38.3111 34.2412 38.4092L34.3066 38.459L34.2705 38.5322C34.2606 38.5524 34.251 38.573 34.2412 38.5928C34.2314 38.6126 34.2216 38.6325 34.2119 38.6523L34.1777 38.7217L34.1016 38.7061C34.05 38.6952 34.0057 38.6929 33.9395 38.6826C33.8813 38.6736 33.8124 38.6586 33.751 38.6221V38.6211C32.2085 37.7139 30.4714 37.3539 28.7559 36.8408C28.0691 36.6353 27.3796 36.4259 26.7021 36.1826C26.5605 36.1317 26.4303 36.0562 26.3086 35.9775C26.1827 35.8961 26.0727 35.8166 25.9521 35.7441L25.873 35.6963L25.915 35.6133C25.9237 35.5963 25.9319 35.579 25.9404 35.5625C25.949 35.5459 25.9576 35.5298 25.9658 35.5137L25.9941 35.459H26.0947Z" fill="white" stroke="white" stroke-width="0.2"/>
<path d="M24.9802 32.1035C26.04 32.9334 27.2045 33.5155 28.3953 34.0391C29.5822 34.5609 30.8038 35.0285 31.9558 35.625L31.8777 35.8086C30.9418 35.4971 30.0031 35.1896 29.0681 34.8711C27.8384 34.4515 26.7001 33.867 25.6785 33.0791L25.2478 32.7295C25.1356 32.6331 25.0281 32.5323 24.9226 32.4316L24.9216 32.4307C24.8931 32.4026 24.88 32.3658 24.8718 32.3438C24.8617 32.3161 24.8489 32.2797 24.825 32.2217L24.7996 32.1592L24.8474 32.1123L24.8484 32.1113L24.9109 32.0498L24.9802 32.1035Z" fill="white" stroke="white" stroke-width="0.2"/>
</svg>
